<svg width="90" height="30" viewBox="0 0 90 30" fill="none" xmlns="http://www.w3.org/2000/svg">
<g filter="url(#filter0_ii_974_731)">
<rect width="90" height="30" rx="15" fill="white"/>
</g>
<g filter="url(#filter1_ii_974_731)">
<rect width="54" height="30" rx="15" fill="#FF001E"/>
</g>
<path d="M16.712 14.312H22.104V16.328H16.712V14.312ZM16.904 18.92H23V21H14.328V9.8H22.792V11.88H16.904V18.92ZM25.1104 21V9.8H27.2544L33.8624 17.864H32.8224V9.8H35.3824V21H33.2544L26.6304 12.936H27.6704V21H25.1104Z" fill="white"/>
<path d="M58.328 21V9.8H63.176C64.1787 9.8 65.0427 9.96533 65.768 10.296C66.4933 10.616 67.0533 11.08 67.448 11.688C67.8427 12.296 68.04 13.0213 68.04 13.864C68.04 14.696 67.8427 15.416 67.448 16.024C67.0533 16.6213 66.4933 17.08 65.768 17.4C65.0427 17.72 64.1787 17.88 63.176 17.88H59.768L60.92 16.744V21H58.328ZM65.448 21L62.648 16.936H65.416L68.248 21H65.448ZM60.92 17.032L59.768 15.816H63.032C63.832 15.816 64.4293 15.6453 64.824 15.304C65.2187 14.952 65.416 14.472 65.416 13.864C65.416 13.2453 65.2187 12.7653 64.824 12.424C64.4293 12.0827 63.832 11.912 63.032 11.912H59.768L60.92 10.68V17.032ZM75.1176 21.192C73.5283 21.192 72.2856 20.7493 71.3896 19.864C70.4936 18.9787 70.0456 17.7147 70.0456 16.072V9.8H72.6376V15.976C72.6376 17.0427 72.8563 17.8107 73.2936 18.28C73.731 18.7493 74.3443 18.984 75.1336 18.984C75.923 18.984 76.5363 18.7493 76.9736 18.28C77.411 17.8107 77.6296 17.0427 77.6296 15.976V9.8H80.1896V16.072C80.1896 17.7147 79.7416 18.9787 78.8456 19.864C77.9496 20.7493 76.707 21.192 75.1176 21.192Z" fill="#999999"/>
<defs>
<filter id="filter0_ii_974_731" x="-3" y="-3" width="96" height="36" filterUnits="userSpaceOnUse" color-interpolation-filters="sRGB">
<feFlood flood-opacity="0" result="BackgroundImageFix"/>
<feBlend mode="normal" in="SourceGraphic" in2="BackgroundImageFix" result="shape"/>
<feColorMatrix in="SourceAlpha" type="matrix" values="0 0 0 0 0 0 0 0 0 0 0 0 0 0 0 0 0 0 127 0" result="hardAlpha"/>
<feOffset dx="-3" dy="-3"/>
<feGaussianBlur stdDeviation="2"/>
<feComposite in2="hardAlpha" operator="arithmetic" k2="-1" k3="1"/>
<feColorMatrix type="matrix" values="0 0 0 0 0 0 0 0 0 0 0 0 0 0 0 0 0 0 0.25 0"/>
<feBlend mode="normal" in2="shape" result="effect1_innerShadow_974_731"/>
<feColorMatrix in="SourceAlpha" type="matrix" values="0 0 0 0 0 0 0 0 0 0 0 0 0 0 0 0 0 0 127 0" result="hardAlpha"/>
<feOffset dx="3" dy="3"/>
<feGaussianBlur stdDeviation="2.5"/>
<feComposite in2="hardAlpha" operator="arithmetic" k2="-1" k3="1"/>
<feColorMatrix type="matrix" values="0 0 0 0 0 0 0 0 0 0 0 0 0 0 0 0 0 0 0.25 0"/>
<feBlend mode="normal" in2="effect1_innerShadow_974_731" result="effect2_innerShadow_974_731"/>
</filter>
<filter id="filter1_ii_974_731" x="-4" y="-4" width="62" height="38" filterUnits="userSpaceOnUse" color-interpolation-filters="sRGB">
<feFlood flood-opacity="0" result="BackgroundImageFix"/>
<feBlend mode="normal" in="SourceGraphic" in2="BackgroundImageFix" result="shape"/>
<feColorMatrix in="SourceAlpha" type="matrix" values="0 0 0 0 0 0 0 0 0 0 0 0 0 0 0 0 0 0 127 0" result="hardAlpha"/>
<feOffset dx="-4" dy="-4"/>
<feGaussianBlur stdDeviation="2.5"/>
<feComposite in2="hardAlpha" operator="arithmetic" k2="-1" k3="1"/>
<feColorMatrix type="matrix" values="0 0 0 0 0 0 0 0 0 0 0 0 0 0 0 0 0 0 0.25 0"/>
<feBlend mode="normal" in2="shape" result="effect1_innerShadow_974_731"/>
<feColorMatrix in="SourceAlpha" type="matrix" values="0 0 0 0 0 0 0 0 0 0 0 0 0 0 0 0 0 0 127 0" result="hardAlpha"/>
<feOffset dx="4" dy="4"/>
<feGaussianBlur stdDeviation="2.5"/>
<feComposite in2="hardAlpha" operator="arithmetic" k2="-1" k3="1"/>
<feColorMatrix type="matrix" values="0 0 0 0 0 0 0 0 0 0 0 0 0 0 0 0 0 0 0.25 0"/>
<feBlend mode="normal" in2="effect1_innerShadow_974_731" result="effect2_innerShadow_974_731"/>
</filter>
</defs>
</svg>
