<svg width="46" height="45" viewBox="0 0 46 45" fill="none" xmlns="http://www.w3.org/2000/svg">
<path fill-rule="evenodd" clip-rule="evenodd" d="M21.433 0.0220616C21.265 0.0419381 20.7547 0.098929 20.2989 0.148796C16.3201 0.584056 12.2485 2.32052 8.97768 4.97711C3.78313 9.19603 0.671422 15.7415 0.670899 22.4498C0.670811 22.9867 0.696197 23.7287 0.727253 24.0988L0.783608 24.7717L1.05439 24.7709C1.2033 24.7706 1.52276 24.7462 1.76431 24.717L2.20346 24.6637L2.20049 22.6729C2.19866 21.4838 2.24394 20.3456 2.31285 19.8466C2.59864 17.7777 3.28929 15.3584 4.05513 13.7441L4.46758 12.8748L5.29519 13.8278C5.91073 14.5366 6.71513 15.2779 8.43472 16.7209L10.7466 18.661L11.8621 19.1362C12.5078 19.4113 13.0067 19.5776 13.0468 19.5311C13.2009 19.3526 13.5841 18.3187 13.5199 18.2548C13.4819 18.2171 13.011 17.9958 12.4735 17.7631C11.5299 17.3546 11.4217 17.2778 9.34398 15.5384C7.69331 14.1565 6.97928 13.4928 6.27912 12.6893C5.77708 12.1132 5.3464 11.5893 5.32197 11.5252C5.20603 11.2206 7.00283 8.90236 8.48236 7.44751C9.38542 6.55958 9.5175 6.45888 9.57839 6.612C9.61642 6.70777 9.82684 7.36757 10.0459 8.07819C10.3339 9.01257 10.4998 9.41423 10.6448 9.52935C10.7553 9.61686 11.927 9.999 13.2486 10.3785L15.6517 11.0686L15.9805 13.1049C16.1613 14.225 16.364 15.2306 16.4309 15.3397C16.4977 15.4489 17.2089 16.0344 18.0113 16.641L19.4702 17.7439L22.1309 21.1861C24.2611 23.9421 24.8437 24.643 25.0533 24.7018C25.2811 24.7657 25.5313 24.6677 26.9892 23.9427C28.0634 23.4085 28.713 23.0338 28.802 22.897C28.9046 22.739 29.0372 21.7166 29.3129 18.9565L29.6852 15.2292L31.0331 13.1932L32.3811 11.1571L33.9949 10.8364C34.8826 10.6599 35.7143 10.4809 35.8432 10.4384C35.9721 10.3958 36.6359 9.93682 37.3182 9.41836L38.5587 8.47564L38.8089 8.77422C40.0179 10.2168 40.9332 11.6415 41.7695 13.3823C42.3242 14.5371 43.0675 16.5203 43.0675 16.8456C43.0675 16.9257 42.6435 17.4173 42.1254 17.9381L41.1834 18.8848L41.046 18.5962C40.7981 18.0755 40.1126 17.2377 39.6401 16.878C38.6019 16.0878 37.6651 15.7665 36.3939 15.7647C34.8845 15.7625 33.6804 16.2883 32.6335 17.407C31.1377 19.0052 30.807 21.1043 31.6973 23.348L31.9266 23.9257L31.2284 26.396L30.5302 28.8664L28.2498 32.3183C26.9955 34.2168 25.9692 35.8488 25.9692 35.9449C25.9692 36.0408 26.5775 37.5899 27.321 39.3874C28.0646 41.1848 28.6549 42.6736 28.6328 42.6958C28.5477 42.7816 26.8401 43.159 25.9258 43.2941C25.3979 43.3721 24.2005 43.4517 23.2649 43.471L21.5638 43.5061L21.5189 44.1871C21.4918 44.5984 21.509 44.8965 21.5625 44.9399C21.6979 45.0498 25.1139 44.936 26.1001 44.7887C31.3666 44.0026 35.8785 41.5918 39.5086 37.6242C40.9595 36.0384 42.1074 34.3166 43.1266 32.1968C45.47 27.3236 45.9574 21.7918 44.5112 16.4807C42.7602 10.0497 38.1644 4.6634 32.0758 1.90602C30.3159 1.10902 27.8283 0.411236 25.7948 0.144135C25.0297 0.043697 21.9738 -0.0418774 21.433 0.0220616ZM25.9692 1.68562C30.0928 2.31331 34.1438 4.24238 37.0103 6.94339L37.4967 7.40178L36.41 8.21671L35.3233 9.03165L33.5469 9.386C32.5699 9.58089 31.6847 9.78344 31.5798 9.83612C31.475 9.8888 30.6811 11.0051 29.8157 12.3167L28.2423 14.7016L27.8895 18.2635C27.6956 20.2226 27.5192 21.8744 27.4977 21.9342C27.4556 22.0515 25.475 23.0761 25.4202 23.0091C25.402 22.9869 24.3024 21.5596 22.9765 19.8374L20.5658 16.706L19.1893 15.6687C18.4321 15.0983 17.7973 14.6185 17.7785 14.6027C17.7596 14.5869 17.5767 13.5747 17.3719 12.3532C17.0409 10.3799 16.9765 10.1127 16.7939 9.9545C16.6663 9.84377 15.6704 9.51185 14.1631 9.07756C12.5954 8.62585 11.7134 8.33043 11.669 8.24204C11.6313 8.16685 11.4362 7.56026 11.2353 6.89396C11.0346 6.22766 10.8504 5.63013 10.826 5.56619C10.7591 5.39038 12.1127 4.51758 13.7126 3.70475C16.0921 2.49598 18.4127 1.83531 21.3894 1.51913C22.107 1.44288 25.0862 1.55123 25.9692 1.68562ZM22.6543 3.09755C21.1652 3.42112 19.8058 4.48653 19.1037 5.88008C18.1468 7.77926 18.4514 10.0344 19.9652 12.2578C20.5177 13.0693 22.0209 14.6265 22.8636 15.2603C23.6575 15.8574 23.8355 15.8568 24.6259 15.2539C26.5592 13.779 28.0783 11.7961 28.6872 9.9523C28.8567 9.43894 28.8905 9.15399 28.8905 8.23729C28.8905 7.30802 28.859 7.04954 28.6871 6.56626C27.7789 4.01345 25.2174 2.54057 22.6543 3.09755ZM24.4025 4.54414C25.371 4.72927 26.3795 5.41158 26.8939 6.22951C27.3966 7.02923 27.5829 8.22762 27.3538 9.18776C27.1887 9.8793 26.6376 10.969 26.0708 11.7247C25.5653 12.3983 24.5011 13.4796 23.9634 13.8656L23.7232 14.0381L23.0782 13.4833C21.5738 12.189 20.5309 10.6595 20.1609 9.20473C19.4873 6.55536 21.7749 4.04177 24.4025 4.54414ZM13.32 5.99459V6.74216H14.0615H14.803V5.99459V5.24703H14.0615H13.32V5.99459ZM23.0192 6.1179C21.1862 6.75614 21.0087 9.31098 22.7359 10.1942C23.5699 10.6205 24.636 10.4723 25.3012 9.83718C25.9249 9.24167 26.138 8.18162 25.7953 7.37865C25.5389 6.7776 24.981 6.26495 24.3914 6.08844C23.8074 5.91359 23.5927 5.91817 23.0192 6.1179ZM31.9595 6.00928C31.9275 6.04147 31.9013 6.37788 31.9013 6.75685V7.44575H32.6428H33.3843V6.69819V5.95062H32.701C32.3251 5.95062 31.9914 5.977 31.9595 6.00928ZM24.2899 7.76175C24.7099 8.23562 24.3838 8.94089 23.7447 8.94089C23.1445 8.94089 22.8035 8.3 23.1434 7.81083C23.4323 7.39492 23.9454 7.37302 24.2899 7.76175ZM4.42196 17.9557V18.7032H5.16346H5.90497V17.9557V17.2081H5.16346H4.42196V17.9557ZM37.0517 17.2968C37.751 17.4304 38.3911 17.7634 38.922 18.2696C39.7278 19.038 40.1015 19.8988 40.1015 20.9874C40.1015 22.0055 39.7437 22.9956 38.9406 24.2C38.582 24.7379 36.876 26.5171 36.5505 26.6927C36.3944 26.777 36.2876 26.7177 35.7268 26.2353C34.9897 25.6013 34.2683 24.7923 33.7466 24.0149C32.3533 21.9389 32.3424 19.9006 33.7165 18.4195C34.2216 17.8751 34.7503 17.5595 35.478 17.3676C36.1495 17.1907 36.4309 17.178 37.0517 17.2968ZM24.4862 18.7472V19.4948H25.2277H25.9692V18.7472V17.9996H25.2277H24.4862V18.7472ZM35.81 18.8229C35.3901 18.9403 35.2676 19.0133 34.8375 19.4024C33.7338 20.4011 34.0933 22.4039 35.4848 23.0073C36.0107 23.2354 36.7874 23.2641 37.2427 23.0724C37.705 22.8776 38.1899 22.3979 38.4134 21.914C39.1982 20.2147 37.6036 18.3214 35.81 18.8229ZM43.6881 19.8493C43.8606 21.0785 43.8389 24.1274 43.6487 25.3874C42.9563 29.9714 41.0703 33.8496 37.9671 37.0702C36.1493 38.9567 34.5176 40.1625 32.2502 41.295C30.9109 41.9639 30.197 42.2557 30.1113 42.1694C30.0869 42.1447 29.5042 40.7635 28.8164 39.0999L27.566 36.0754L29.7234 32.8145L31.8809 29.5536L32.4247 27.6244C32.7238 26.5633 32.98 25.6823 32.994 25.6666C33.008 25.6509 33.4449 26.0705 33.9651 26.5991C35.1597 27.8131 36.01 28.4656 36.3973 28.4656C36.7603 28.4656 37.4942 27.9271 38.6005 26.8491C40.4993 24.9986 41.5845 22.9354 41.5845 21.1751V20.597L42.5204 19.6504C43.5858 18.5731 43.507 18.5597 43.6881 19.8493ZM6.25391 19.6541C4.92609 20.0998 3.946 21.2503 3.7095 22.6408C3.5735 23.4403 3.6945 24.1562 4.10198 24.9621L4.39832 25.5484L4.00767 25.6475C2.64671 25.9931 1.43578 27.1159 0.913764 28.5167C0.727079 29.0173 0.719576 29.1533 0.717046 32.0715C0.714604 34.899 0.725945 35.1291 0.883405 35.449C1.28268 36.2603 1.94603 36.6652 2.96076 36.717L3.63683 36.7514V40.6186V44.4858L3.89182 44.7429L4.14682 45H7.37158C10.4163 45 10.6079 44.9906 10.8023 44.8319L11.0083 44.6639L11.0519 40.7203L11.0955 36.7768L11.7934 36.7277C12.6049 36.6707 13.0625 36.4678 13.4919 35.9748C14.0604 35.322 14.0615 35.3145 14.0615 32.1594C14.0615 29.4444 14.0518 29.2697 13.8662 28.6749C13.4105 27.2141 12.1702 26.0029 10.7649 25.6465C10.535 25.5882 10.3601 25.516 10.3762 25.486C10.9586 24.3981 11.0083 24.2212 11.0083 23.2326C11.0083 22.3276 10.9903 22.227 10.7304 21.6739C10.348 20.8599 9.77353 20.2665 8.99042 19.8763C8.42399 19.5941 8.262 19.5548 7.54317 19.5257C6.92397 19.5007 6.62091 19.5308 6.25391 19.6541ZM15.1394 19.6927C14.0954 20.0619 13.4098 20.682 12.9395 21.6827C12.6842 22.2258 12.6658 22.3306 12.6658 23.2326C12.6658 24.1376 12.6837 24.2382 12.9436 24.7913C13.3274 25.6083 13.9023 26.2021 14.6642 26.5687C15.0045 26.7324 15.3515 26.8885 15.4355 26.9157C15.573 26.9601 15.5882 27.1136 15.5882 28.4629V29.9607H16.3297H17.0712V28.4549V26.9492L18.1398 26.9861C19.0755 27.0184 19.2735 27.053 19.7319 27.265C20.4093 27.5783 20.9219 28.0908 21.23 28.7631L21.4766 29.3011L21.503 32.0075L21.5295 34.7141L21.2698 34.9758C21.0439 35.2037 20.9471 35.2377 20.5237 35.2377H20.0372V33.3467V31.4558H19.2957H18.5542V37.4804V43.5049H17.8127H17.0712V40.8664V38.2279H16.3297H15.5882V40.8664V43.5049H14.848H14.1078L14.0846 40.8884L14.0615 38.2719L13.3418 38.2464L12.6221 38.2208V41.3945V44.5683L12.8363 44.7841L13.0504 45H16.2888H19.5272L19.7822 44.7429L20.0372 44.4858V40.6093V36.7328H20.5932C21.5943 36.7328 22.2703 36.36 22.7057 35.5678L22.9596 35.1057L22.9574 32.0715C22.9554 29.1501 22.9481 29.0179 22.7608 28.5167C22.2346 27.1083 21.036 25.9953 19.673 25.6493L19.2757 25.5484L19.5716 24.9621C19.7344 24.6397 19.9108 24.1239 19.9636 23.8157C20.2378 22.215 19.3384 20.5535 17.8067 19.8309C17 19.4503 15.9753 19.3972 15.1394 19.6927ZM36.9392 20.5182C37.3554 20.9797 37.0325 21.6935 36.4075 21.6935C35.7912 21.6935 35.4469 21.0132 35.8208 20.5341C36.1232 20.1464 36.5978 20.1397 36.9392 20.5182ZM8.01826 21.0819C8.89018 21.326 9.56958 22.2636 9.56801 23.2206C9.56609 24.4433 8.75226 25.3431 7.54884 25.4531C6.92118 25.5105 6.37404 25.3204 5.88525 24.8752C4.14978 23.2945 5.75091 20.447 8.01826 21.0819ZM17.202 21.1969C18.6758 21.8902 18.979 23.7911 17.7888 24.8752C16.6726 25.8918 14.9365 25.5565 14.3116 24.2037C13.4422 22.3215 15.3575 20.3291 17.202 21.1969ZM6.60286 28.4656V29.9607H7.34436H8.08587V28.4552V26.9497L9.19813 26.9859C10.1694 27.0176 10.3734 27.0514 10.8073 27.2531C11.4042 27.5306 11.9921 28.1 12.2621 28.6623C12.5525 29.2671 12.6185 29.9393 12.6204 32.3162C12.6227 35.0942 12.5694 35.2377 11.5374 35.2377H11.0519V33.3432V31.4487L10.3322 31.4743L9.6125 31.4998L9.59008 37.5023L9.56766 43.5049H8.82676H8.08587V40.8664V38.2279H7.34436H6.60286V40.8664V43.5049H5.86135H5.11985V37.4804V31.4558H4.37834H3.63683V33.3467V35.2377H3.15032C2.72888 35.2377 2.62969 35.2033 2.40881 34.9806L2.15382 34.7235V32.1821C2.15382 29.4516 2.20206 29.0668 2.63065 28.3824C3.01074 27.7753 3.771 27.236 4.48599 27.0661C4.66674 27.0232 5.21685 26.9842 5.70869 26.9792L6.60286 26.9704V28.4656ZM36.4376 32.1999V32.951H37.1825H37.9276L37.9022 32.2254L37.8769 31.4998L37.1572 31.4743L36.4376 31.4487V32.1999ZM29.7204 35.9852V36.7328H30.4619H31.2034V35.9852V35.2377H30.4619H29.7204V35.9852Z" fill="white"/>
</svg>
