<svg width="41" height="40" viewBox="0 0 41 40" fill="none" xmlns="http://www.w3.org/2000/svg">
<path fill-rule="evenodd" clip-rule="evenodd" d="M3.92614 0.0649324C2.78196 0.23654 1.52421 1.13837 0.978154 2.17846C0.462636 3.16027 0.487996 2.41243 0.487996 16.6521C0.487996 25.8229 0.515732 29.8061 0.581719 30.1285C0.895627 31.6611 2.10206 32.9533 3.58679 33.347C4.009 33.459 4.88813 33.4794 9.29005 33.4794C14.2076 33.4794 14.4917 33.4877 14.4478 33.6306C14.4222 33.7136 14.2656 34.219 14.0998 34.7533L13.7982 35.7249L13.144 35.7287C12.0958 35.7348 11.4732 36.0586 11.0284 36.829C10.8319 37.1694 10.7933 37.3357 10.7933 37.8409C10.7933 38.7639 11.2095 39.4333 12.0231 39.8191C12.4021 39.9987 12.462 40 20.3776 40H28.3504L28.796 39.7486C30.4036 38.8416 30.2234 36.4747 28.499 35.8482C28.3239 35.7845 27.8863 35.7308 27.5263 35.7287L26.8719 35.7249L26.5611 34.7101C26.3901 34.152 26.2321 33.6468 26.2098 33.5874C26.1778 33.5018 27.2205 33.4794 31.2497 33.4794C36.7826 33.4794 36.8133 33.4771 37.8039 32.9783C38.4155 32.6704 39.314 31.7561 39.6532 31.0963C40.207 30.0188 40.1797 30.7678 40.1811 16.612C40.1825 2.34359 40.2106 3.07355 39.6205 2.07206C39.0869 1.16626 38.3831 0.582952 37.3788 0.213826L36.8321 0.0128541L20.632 0.000935612C11.6897 -0.00562815 4.20536 0.0230452 3.92614 0.0649324ZM37.2287 1.49497C37.7633 1.74655 38.3675 2.32986 38.642 2.85946L38.8677 3.29474L38.8901 14.8893L38.9125 26.4838H20.3352H1.75788L1.78027 14.8893L1.80266 3.29474L2.02836 2.85946C2.40232 2.13796 3.14133 1.5315 3.85676 1.35894C4.0409 1.31455 11.1299 1.28735 20.5048 1.29495L36.8321 1.30833L37.2287 1.49497ZM5.15293 4.6334C5.0587 4.72935 4.9833 4.92125 4.9833 5.06523C4.9833 5.2092 5.0587 5.4011 5.15293 5.49705C5.319 5.66616 5.43563 5.66978 10.7084 5.66978C15.9813 5.66978 16.0979 5.66616 16.264 5.49705C16.3582 5.4011 16.4336 5.2092 16.4336 5.06523C16.4336 4.92125 16.3582 4.72935 16.264 4.6334C16.0979 4.4643 15.9813 4.46067 10.7084 4.46067C5.43563 4.46067 5.319 4.4643 5.15293 4.6334ZM25.2334 7.84852C23.519 8.85709 22.117 9.70252 22.1178 9.72723C22.1185 9.75193 23.5301 10.6008 25.2545 11.6137L28.3898 13.4552L31.5283 11.6137C33.2545 10.6008 34.6674 9.7521 34.6681 9.72757C34.6693 9.68223 28.6952 6.14756 28.4723 6.06162C28.4045 6.03554 26.9655 6.8295 25.2334 7.84852ZM5.20679 7.74885C4.89772 7.99638 4.89772 8.43874 5.20679 8.68626C5.4274 8.86305 5.49703 8.8653 10.7084 8.8653C15.9199 8.8653 15.9895 8.86305 16.2101 8.68626C16.3722 8.55646 16.4336 8.42769 16.4336 8.21756C16.4336 8.00743 16.3722 7.87866 16.2101 7.74885C15.9895 7.57206 15.9199 7.56982 10.7084 7.56982C5.49703 7.56982 5.4274 7.57206 5.20679 7.74885ZM5.15293 10.9381C4.92435 11.1708 4.92885 11.6384 5.16184 11.8531C5.33342 12.0112 5.54869 12.0176 10.7084 12.0176C15.8682 12.0176 16.0835 12.0112 16.2551 11.8531C16.488 11.6384 16.4925 11.1708 16.264 10.9381C16.0979 10.769 15.9813 10.7653 10.7084 10.7653C5.43563 10.7653 5.319 10.769 5.15293 10.9381ZM21.4581 14.5736L21.4802 18.3115L24.6073 20.1521C26.3272 21.1645 27.7494 21.9928 27.7676 21.9928C27.7859 21.9928 27.7909 20.3146 27.7788 18.2633L27.7567 14.5338L25.1273 12.9879C23.6812 12.1376 22.2591 11.3056 21.967 11.1389L21.436 10.8358L21.4581 14.5736ZM32.1671 12.6905L29.0289 14.5322L29.0068 18.2625C28.9947 20.3141 28.9995 21.9928 29.0176 21.9928C29.0726 21.9928 35.2027 18.375 35.2787 18.2977C35.3177 18.258 35.3396 16.5657 35.3275 14.5371L35.3054 10.8489L32.1671 12.6905ZM12.5421 13.9567C12.3843 13.997 12.1363 14.1511 11.9908 14.2991L11.7262 14.5683L11.6993 15.9416C11.6691 17.4827 11.728 17.7193 12.2181 18.0235C12.4592 18.1732 12.651 18.1922 13.9328 18.1924C15.5642 18.1928 15.8264 18.1193 16.109 17.5828C16.3318 17.1598 16.3364 15.0128 16.1154 14.5715C15.8185 13.9787 15.6465 13.9197 14.1585 13.9006C13.4273 13.8912 12.6998 13.9164 12.5421 13.9567ZM5.824 14.2441C5.37575 14.5518 5.32519 14.7353 5.32384 16.0595C5.32291 16.95 5.35463 17.3144 5.44928 17.5009C5.69771 17.99 5.81374 18.02 7.45537 18.02C8.94442 18.02 8.95884 18.0182 9.21601 17.7978C9.5808 17.4853 9.673 17.0454 9.63288 15.8086C9.57911 14.1522 9.44696 14.0472 7.41585 14.0472C6.19805 14.0472 6.09186 14.0603 5.824 14.2441ZM14.9917 16.0336V16.8973H13.9315H12.8713V16.0336V15.17H13.9315H14.9917V16.0336ZM5.69746 19.8238C5.2481 20.1028 5.15293 20.4431 5.15293 21.7711C5.15293 23.1177 5.24182 23.4471 5.67795 23.7179C5.9324 23.8759 6.10365 23.8923 7.50788 23.8925L9.05697 23.8929L9.37385 23.5974L9.69064 23.302L9.71761 21.9204C9.74781 20.3703 9.68937 20.1348 9.19879 19.8302C8.9568 19.68 8.76588 19.6616 7.44299 19.6616C6.14003 19.6616 5.9268 19.6814 5.69746 19.8238ZM12.1419 20.1273L11.8535 20.421V21.721C11.8535 23.6738 11.9086 23.7386 13.6123 23.7916C15.1161 23.8383 15.4594 23.7794 15.8194 23.4128L16.106 23.1209L16.079 21.7291L16.0519 20.3373L15.7749 20.0855L15.4979 19.8337H13.9641H12.4302L12.1419 20.1273ZM8.5032 21.7769V22.6406L7.46419 22.6648L6.42519 22.6891V21.7769V20.8647L7.46419 20.889L8.5032 20.9133V21.7769ZM20.9883 28.5531C21.5177 28.8818 21.7153 29.7092 21.396 30.2596C21.2008 30.596 20.6981 30.8885 20.315 30.8885C19.9867 30.8885 19.5499 30.6231 19.2898 30.2656C19.0673 29.9598 19.065 29.3655 19.2849 28.9779C19.6013 28.4201 20.4381 28.2115 20.9883 28.5531Z" fill="#FF001E"/>
</svg>
